<?xml version="1.0" encoding="utf-8"?>
<!-- Generator: Adobe Illustrator 16.0.4, SVG Export Plug-In . SVG Version: 6.00 Build 0)  -->
<!DOCTYPE svg PUBLIC "-//W3C//DTD SVG 1.1//EN" "http://www.w3.org/Graphics/SVG/1.1/DTD/svg11.dtd">
<svg version="1.1" id="Layer_1" xmlns="http://www.w3.org/2000/svg" xmlns:xlink="http://www.w3.org/1999/xlink" x="0px" y="0px"
	 width="230px" height="40px" viewBox="0 0 230 40" enable-background="new 0 0 230 40" xml:space="preserve">
<g>
	<g>
		<text transform="matrix(1 0 0 1 49.7139 16.2495)" font-family="'AkkuratOffice-Regular'" font-size="13">Centre for sustainable fashion</text>
	</g>
	<g>
		<text transform="matrix(1 0 0 1 49.7139 34.3521)" fill="#1E1E1E" font-family="'AkkuratLightOffice-Regular'" font-size="13">London college of fashion</text>
	</g>
	<path d="M39.286,13.255c-0.374-1.002-1.542-3.875-4.555-6.008c-0.164-0.149-0.76-1.011-2.85-2.134
		C30.52,4.38,28.797,3.53,28.514,3.431c-0.21-0.074-0.423-0.148-1.488-0.453c-0.318-0.111-0.757-0.12-1.097-0.229
		c-3.9-1.125-4.884-0.715-6.513-0.471c-0.901,0.269-1.966,0.58-2.551,0.836c-0.401,0.054-0.68,0.113-0.822,0.132
		c-2.396,0.713-3.112,1.163-4.384,1.897C9.882,6.364,9.113,7.11,8.846,7.338c-2.446,2.868-4.47,7.652-4.379,11.876
		c0.015,0.695,0.202,2.923,0.214,3.084c0.017,0.101,0.02,1.533,1.412,5.253c1.421,3.872,6.296,7.324,6.31,7.223l0.209,0.138
		c0.323,0.27,0.784,0.521,1.196,0.727c0.07,0.013,2.529,1.152,4.782,1.623c0.654,0.137,1.284,0.199,1.877,0.259
		c0.862,0.107,1.681,0.161,2.451,0.172c-0.018,0.007-0.034,0.014-0.05,0.019l0.077-0.018c4.422,0.057,7.279-1.274,7.678-1.58
		c0.392-0.234,0.783-0.512,1.171-0.817c0.212-0.124,0.354-0.225,0.427-0.28c2.731-1.635,5.496-5.281,6.252-6.73
		c1.125-1.822,1.646-5.53,1.718-6.514C40.229,21.228,40.319,15.783,39.286,13.255z M36.956,15.337c0-0.544,0.2-1.108,0.305-1.69
		c0.908,1.658,1.38,3.318,1.587,4.637c-0.342-0.407-0.85-0.812-1.527-1.588h-0.04c-0.123,0-0.326-0.815-0.326-1.355
		C36.956,15.341,36.956,15.339,36.956,15.337z M38.355,20.748c-0.07,0.11-0.137,0.212-0.198,0.303
		c-0.06,0.094-0.122,0.188-0.179,0.282c-0.015-0.316-0.04-0.662-0.075-1.03v0C38.066,20.455,38.219,20.604,38.355,20.748z
		 M37.127,22.64c-3.546,4.986-8.08,8.337-9.939,9.54c-0.146,0.094-0.292,0.172-0.442,0.259c0.007-0.101,0.013-0.191,0.016-0.261
		c1.124-0.756,2.228-1.577,2.43-1.771c0.668-0.544,1.368-1.299,3.327-4.155c0.218-0.293,2.067-2.905,3.529-7.546
		c0.256,0.206,0.592,0.579,1.306,1l0,0c0,0-0.065,0.046-0.064,0.047l-0.032,0.046h-0.016C37.289,20.575,37.22,21.519,37.127,22.64z
		 M26.187,13.862c2.327,0.636,5.999,1.832,8.857,3.966c-1.703,5.09-4.42,8.952-5.625,10.544c-0.718,0.947-1.532,1.535-2.452,2.293
		C27.251,22.945,26.958,17.185,26.187,13.862z M36.18,13.225c0,0.002,0,0.002,0,0.002c-0.775-0.711-0.708-1.435-1.119-2.162
		c-0.137-0.238-0.58-0.631-1.653-1.57c0.799,0.605,1.406,1.136,1.809,1.507c0.375,0.345,0.752,0.723,1.063,1.121
		C36.244,12.534,36.18,12.9,36.18,13.225z M27.772,5.213c0.506,0,1.021-0.26,1.545-0.336c1.232,0.566,2.365,1.19,3.369,1.817
		c1.259,1.098,2.146,2.243,2.519,2.881c0.188,0.255,0.406,0.585,0.638,0.958c-0.437-0.413-1.119-1.018-2.208-1.931
		C33.41,8.398,31.729,6.998,27.772,5.213L27.772,5.213z M33.684,10.812c0.939,0.939,1.641,2.255,2.163,3.586
		c-0.084,0.391-0.176,0.776-0.274,1.159c-0.703-0.502-1.529-1.047-2.5-1.641c-1.903-1.29-5.915-2.142-7.816-2.521l0,0
		c-0.562-1.797-1.12-2.762-1.393-3.56c-0.097-0.221-0.212-0.44-0.332-0.661l0.002-0.001c0.895-0.588,1.83-1.087,2.802-1.48
		C29.727,7.174,31.87,8.995,33.684,10.812z M23.924,11.15c-0.656-0.075-2.062-0.194-3.817-0.194c-0.314,0-0.642,0.004-0.977,0.013
		c1.089-1.177,2.275-2.271,3.545-3.2C23.122,8.822,23.543,9.946,23.924,11.15z M26.248,3.818c-0.01,0.003-0.019,0.005-0.029,0.01
		l-0.012,0.003c-0.011,0.005-0.025,0.01-0.035,0.016c-0.035,0.012-0.068,0.025-0.101,0.039c-0.014,0.007-0.03,0.015-0.045,0.02
		c-0.032,0.014-0.063,0.028-0.096,0.043c-0.015,0.007-0.029,0.014-0.042,0.021c-0.043,0.022-0.086,0.167-0.131,0.19l-0.004,0.126
		h-0.001c-0.043,0-0.087-0.075-0.131-0.052c-0.013,0.007-0.026-0.047-0.037-0.04c-0.033,0.019-0.066,0.01-0.099,0.029
		c-0.015,0.008-0.025,0-0.038,0.008c-0.037,0.023-0.071,0.038-0.106,0.063c-0.36-0.124-0.736-0.248-1.126-0.369
		c-0.459-0.129-0.897-0.238-1.318-0.325C24.213,3.618,25.359,3.709,26.248,3.818z M21.52,4.245c0.73,0.138,1.63,0.264,1.995,0.394
		c0.226,0.071,0.439,0.145,0.656,0.218c-0.027,0.015-0.054,0.027-0.081,0.042c-0.011,0.004-0.02,0.011-0.03,0.016
		c-0.042,0.022-0.085,0.046-0.128,0.067c-0.038,0.021-0.073,0.041-0.11,0.062c-0.048,0.026-0.098,0.054-0.145,0.08
		c-0.032,0.019-0.065,0.035-0.097,0.053c-0.065,0.039-0.132,0.076-0.201,0.115c-0.012,0.008-0.025,0.016-0.041,0.024
		c-0.08,0.046-0.158,0.093-0.237,0.141c-0.026,0.017-0.053,0.031-0.077,0.047c-0.053,0.034-0.106,0.066-0.159,0.099
		c-0.033,0.02-0.064,0.041-0.093,0.059c-0.048,0.031-0.094,0.06-0.141,0.091c0,0-0.001,0.001-0.003,0.002l-0.001,0.001
		c-0.435-0.595-0.896-1.127-1.302-1.524C21.389,4.236,21.454,4.241,21.52,4.245z M12.751,7.076c0.677-0.798,1.455-1.524,2.254-1.895
		c0.385-0.197,1.028-0.489,1.413-0.593c1.181-0.278,2.069-0.391,2.818-0.424c1.009,0.234,1.961,0.858,2.707,2.077
		c-0.037,0.028-0.072,0.055-0.107,0.084c-0.025,0.021-0.05,0.041-0.074,0.06l-0.004,0.003c-0.026,0.019-0.052,0.041-0.079,0.058
		c-0.02,0.017-0.041,0.03-0.064,0.047c-0.02,0.014-0.041,0.031-0.065,0.047l-0.007,0.003C21.52,6.561,21.493,6.58,21.466,6.6
		l-0.015,0.013c-0.01,0.008-0.021,0.015-0.032,0.025l-0.017,0.012c-0.015,0.013-0.033,0.024-0.048,0.039l-0.015,0.011
		c-0.012,0.009-0.025,0.021-0.04,0.031l-0.021,0.017c-0.013,0.01-0.024,0.021-0.039,0.031l-0.023,0.018
		c-0.019,0.018-0.039,0.032-0.06,0.05c-0.008,0.007-0.015,0.014-0.025,0.02c-0.013,0.012-0.027,0.024-0.043,0.038
		c-0.011,0.007-0.02,0.016-0.031,0.027c-0.014,0.01-0.03,0.022-0.045,0.036c-0.01,0.01-0.02,0.017-0.031,0.026
		c-0.023,0.021-0.048,0.043-0.076,0.064c-0.008,0.009-0.018,0.019-0.029,0.025c-0.018,0.018-0.039,0.033-0.057,0.051
		c-0.012,0.01-0.023,0.021-0.038,0.033c-0.02,0.016-0.039,0.035-0.059,0.053c-0.011,0.011-0.023,0.02-0.035,0.03
		c-0.03,0.027-0.062,0.056-0.094,0.086c-0.013,0.011-0.025,0.021-0.039,0.033c-0.025,0.021-0.044,0.042-0.07,0.065
		c-0.014,0.013-0.029,0.027-0.043,0.04c-0.027,0.024-0.055,0.05-0.081,0.074c-0.011,0.011-0.023,0.022-0.034,0.032
		c-0.039,0.038-0.079,0.075-0.119,0.112c-0.016,0.014-0.031,0.025-0.044,0.043c-0.029,0.026-0.058,0.053-0.088,0.081
		c-0.017,0.017-0.034,0.034-0.05,0.05C19.985,7.9,19.951,7.934,19.913,7.97c-0.011,0.01-0.021,0.021-0.033,0.034
		c-0.047,0.042-0.096,0.09-0.145,0.137c-0.017,0.017-0.034,0.033-0.051,0.049c-0.038,0.036-0.076,0.072-0.113,0.11
		c-0.018,0.017-0.036,0.036-0.054,0.053C19.471,8.402,19.42,8.451,19.37,8.5l-0.023,0.022c-0.057,0.056-0.116,0.116-0.174,0.175
		c-0.02,0.02-0.04,0.037-0.059,0.058c-0.046,0.046-0.092,0.092-0.14,0.139c-0.018,0.021-0.037,0.039-0.057,0.058
		c-0.067,0.067-0.135,0.134-0.201,0.204c-0.008,0.008-0.015,0.017-0.023,0.027l-0.01,0.009l-0.017,0.021l-0.013,0.013l-0.016,0.021
		L18.62,9.262l-0.019,0.021l-0.018,0.021l-0.02,0.021l-0.022,0.021c-0.007,0.009-0.014,0.018-0.021,0.023
		c-0.008,0.007-0.017,0.017-0.025,0.027l-0.021,0.021c-0.073,0.074-0.16,0.165-0.256,0.269l-0.01,0.01
		c-0.021,0.021-0.039,0.04-0.057,0.062l-0.019,0.02c-0.018,0.02-0.034,0.038-0.053,0.058l-0.022,0.022
		c-0.016,0.019-0.035,0.039-0.054,0.059c-0.007,0.007-0.015,0.016-0.023,0.026c-0.017,0.019-0.037,0.04-0.055,0.059
		c-0.008,0.011-0.019,0.021-0.028,0.029c-0.018,0.021-0.039,0.043-0.057,0.065c-0.008,0.009-0.018,0.019-0.024,0.029
		c-0.022,0.025-0.048,0.049-0.069,0.075l-0.02,0.021c-0.028,0.034-0.057,0.065-0.087,0.099l-0.003,0.003
		c-0.062,0.073-0.127,0.146-0.196,0.223c-0.006,0.009-0.015,0.018-0.021,0.028c-0.026,0.027-0.052,0.06-0.079,0.089
		c-0.008,0.013-0.02,0.024-0.031,0.036c-0.022,0.03-0.048,0.059-0.074,0.089c-0.012,0.012-0.022,0.024-0.034,0.039
		c-0.023,0.027-0.051,0.059-0.075,0.09c-0.011,0.014-0.023,0.029-0.036,0.042c-0.025,0.031-0.049,0.061-0.074,0.092
		c-0.012,0.014-0.022,0.025-0.031,0.037c-1.877,0.165-3.863,0.511-5.634,1.168C11.581,10.591,12.025,8.858,12.751,7.076z
		 M15.23,13.425c-0.004,0.008-0.009,0.016-0.016,0.022c-0.02,0.029-0.04,0.058-0.059,0.087c-0.03,0.042-0.06,0.086-0.091,0.131
		c-0.019,0.03-0.041,0.062-0.063,0.093c-0.028,0.044-0.061,0.09-0.091,0.135c-0.021,0.029-0.041,0.06-0.062,0.092
		c-0.035,0.053-0.07,0.104-0.106,0.158c-0.016,0.026-0.033,0.048-0.048,0.074c-0.051,0.078-0.101,0.156-0.154,0.235
		c-0.02,0.029-0.041,0.061-0.06,0.092c-0.032,0.049-0.064,0.1-0.098,0.152c-0.024,0.037-0.047,0.075-0.073,0.113
		c-0.02,0.03-0.038,0.061-0.059,0.092c-0.007,0.01-0.015,0.023-0.021,0.036c-0.053,0.083-0.106,0.167-0.16,0.25
		c-0.014,0.022-0.029,0.044-0.042,0.067c-0.068,0.109-0.137,0.219-0.205,0.329c-0.012,0.019-0.023,0.037-0.037,0.055
		c-0.054,0.093-0.111,0.185-0.167,0.279c-0.021,0.036-0.048,0.074-0.069,0.113c-0.046,0.078-0.092,0.155-0.141,0.233
		c-0.025,0.043-0.05,0.086-0.075,0.128c-0.048,0.079-0.096,0.16-0.143,0.242c-0.024,0.039-0.048,0.08-0.072,0.12
		c-0.062,0.108-0.128,0.22-0.192,0.332c-0.008,0.012-0.014,0.025-0.021,0.036c-0.071,0.125-0.144,0.251-0.215,0.381
		c-0.024,0.035-0.044,0.074-0.065,0.115c-0.054,0.092-0.106,0.187-0.159,0.28c-0.011,0.02-0.021,0.039-0.033,0.06
		c-0.015,0.029-0.032,0.058-0.048,0.088c-0.042,0.072-0.082,0.146-0.121,0.218c-0.029,0.055-0.06,0.107-0.088,0.16
		c-0.041,0.075-0.081,0.149-0.122,0.224c-0.03,0.056-0.061,0.109-0.088,0.164c-0.041,0.077-0.083,0.153-0.124,0.23
		c-0.029,0.057-0.059,0.112-0.089,0.167c-0.042,0.078-0.082,0.155-0.123,0.234c-0.313-1.501-0.495-3.112-0.461-4.806
		C13.003,13.875,13.967,13.602,15.23,13.425z M7.426,14.682l0.953-2.409c0.066-0.08,0.209-0.317,0.316-0.317
		c0.275,0,0.402,0.039,0.529,0.117c-0.138,0.395-0.483,1.167-0.652,1.582c-0.01,0.022-0.022,0.057-0.038,0.097
		c-0.436,0.329-0.831,0.695-1.178,1.102C7.38,14.795,7.402,14.737,7.426,14.682z M6.693,21.64c-0.213-1.126-0.342-2.03-0.127-4.132
		c0.236-0.306,0.594-0.872,1.037-0.872l0,0c-0.297,1.07-0.573,1.919-0.675,2.706C6.831,20.084,6.846,21.141,6.693,21.64z
		 M8.288,28.723c-0.007-0.012-0.015-0.015-0.022-0.027c-0.003-0.002-0.004,0-0.006-0.003c-0.01-0.016-0.018-0.026-0.027-0.04
		c-0.002-0.006-0.006-0.01-0.011-0.016c-0.006-0.011-0.014-0.022-0.021-0.034c-0.001-0.002-0.003-0.006-0.004-0.009
		c-0.008-0.014-0.019-0.027-0.026-0.043c-0.002-0.005-0.005-0.009-0.006-0.013c-0.011-0.016,0.032-0.029,0.021-0.043
		c-0.044-0.078-0.036-0.154-0.081-0.231c0.042,0.069,0.22,0.137,0.22,0.209v0.002l-0.089,0.021c0.038,0.062,0.068,0.099,0.099,0.131
		c-0.001,0.013-0.004,0.02-0.008,0.016l0,0.079c-0.011-0.015-0.019,0.011-0.03-0.005C8.294,28.711,8.292,28.728,8.288,28.723z
		 M8.371,28.664c0.035,0.036,0.071,0.073,0.12,0.145C8.468,28.774,8.402,28.981,8.371,28.664z M8.873,25.639
		c-0.007,0.017-0.012,0.032-0.019,0.049c-0.021,0.064-0.042,0.129-0.063,0.192c-0.008,0.03-0.017,0.058-0.028,0.086
		c-0.017,0.057-0.036,0.115-0.056,0.174c-0.007,0.025-0.016,0.052-0.024,0.079c-0.021,0.067-0.041,0.133-0.061,0.199
		c-0.007,0.015-0.01,0.028-0.013,0.042c-0.024,0.08-0.047,0.157-0.07,0.235l-0.004,0.014c-0.005,0.019-0.01,0.035-0.015,0.056
		c-0.015,0.048-0.029,0.098-0.043,0.145c-0.006,0.025-0.013,0.051-0.021,0.078c-0.01,0.043-0.023,0.085-0.035,0.129
		c-0.007,0.027-0.016,0.055-0.021,0.082c-0.011,0.041-0.021,0.082-0.03,0.119l-0.005,0.018c-0.313-0.814-0.609-1.79-0.712-2.676
		c-0.231-1.051-0.301-3.445-0.216-4.461c0.121-1.452,0.478-2.912,0.917-4.237c0.257-0.155,0.532-0.305,0.817-0.447
		c-0.109,1.836,0.575,4.582,1.145,6.538c-0.016,0.029-0.031,0.06-0.044,0.089c-0.018,0.035-0.033,0.071-0.05,0.104
		c-0.064,0.137-0.13,0.275-0.198,0.415c-0.052,0.123-0.104,0.248-0.156,0.369c-0.016,0.038-0.03,0.072-0.046,0.109
		c-0.037,0.094-0.077,0.188-0.114,0.281c-0.012,0.027-0.026,0.057-0.036,0.086c-0.048,0.115-0.096,0.229-0.138,0.342
		c-0.013,0.028-0.024,0.057-0.035,0.085c-0.035,0.087-0.068,0.173-0.1,0.26c-0.009,0.018-0.016,0.04-0.024,0.058
		c-0.007,0.014-0.01,0.027-0.016,0.043c-0.041,0.104-0.078,0.205-0.116,0.307c-0.007,0.015-0.014,0.029-0.019,0.045
		c-0.035,0.096-0.068,0.188-0.103,0.281c-0.013,0.033-0.023,0.065-0.038,0.097c-0.027,0.081-0.055,0.157-0.082,0.235
		c-0.008,0.024-0.017,0.047-0.024,0.072c-0.035,0.1-0.069,0.197-0.102,0.294L8.873,25.639z M11.11,32.507l-0.369-0.291
		c-0.393-0.393-0.905-0.893-1.43-1.52c0.036-0.169-0.158-0.344,0.2-0.523c0.714,0.918,1.584,1.826,2.427,2.607
		C11.688,32.692,11.357,32.6,11.11,32.507z M13.917,34.565c-0.032-0.026-0.064-0.052-0.098-0.079
		c0.042,0.035,0.082,0.066,0.12,0.098C13.932,34.577,13.925,34.57,13.917,34.565z M14.022,34.648
		c0.028,0.023,0.055,0.043,0.082,0.062c-0.023-0.017-0.046-0.033-0.068-0.051C14.032,34.656,14.025,34.652,14.022,34.648z
		 M14.121,34.727c-0.002-0.003-0.004-0.005-0.007-0.006c0.011,0.007,0.021,0.017,0.032,0.025
		C14.139,34.738,14.13,34.735,14.121,34.727z M14.678,35.123h-0.001l0,0h-0.004c0,0-0.005-0.002-0.009-0.004
		c-0.002-0.002-0.007-0.005-0.007-0.005c0.013,0.007,0.022,0.011,0.022,0.007V35.123z M13.411,33.297
		c-1.177-0.831-3.068-2.274-3.933-3.67c0.385-1.552,0.931-3.417,1.563-5.215c0.323,0.862,2.545,6.075,5.965,9.676
		c-0.841-0.1-1.526-0.243-1.981-0.379C14.553,33.622,14.001,33.477,13.411,33.297z M16.826,35.637
		c-0.203-0.078-0.41-0.107-0.616-0.192c0.502-0.051,1.034-0.133,1.583-0.133h0.001c0.141,0,0.281,0,0.421,0
		c0.334,0,0.676,0.519,1.026,0.763C18.389,35.929,17.471,35.741,16.826,35.637z M17.565,34.146c0.156,0.014,0.316,0.027,0.481,0.037
		l-0.001,0.002C17.88,34.173,17.721,34.16,17.565,34.146z M19.31,35.287c-0.026,0-0.051,0-0.076,0c0.036,0,0.072,0,0.107,0
		C19.331,35.287,19.319,35.287,19.31,35.287z M24.893,36.423c-0.303,0.063-0.61,0.123-0.918,0.183
		c-0.751-0.309-1.619-0.818-2.439-1.452c-0.056-0.042-0.105-0.083-0.158-0.123c1.003-0.117,2.894-0.619,4.076-0.973
		C25.301,34.986,25.114,35.83,24.893,36.423z M25.605,33.006c-0.163,0.071-0.326,0.138-0.489,0.201
		c0.156-0.088,0.324-0.187,0.5-0.296C25.613,32.943,25.608,32.974,25.605,33.006z M19.965,33.91c-1.458-1.197-2.096-1.906-2.9-3.031
		c-0.769-1.146-3.407-4.533-4.882-9.304c1.079-2.351,2.786-5.436,5.019-8.321c0.571-0.032,1.244-0.054,1.991-0.054
		c1.547,0,3.42,0.101,5.438,0.441c1.051,4.216,1.626,9.291,1.323,15.46c-0.032,0.669-0.097,1.588-0.196,2.563
		C23.717,32.901,21.532,33.591,19.965,33.91z M34.398,31.724c-0.618,0.561-1.338,1.172-2.173,1.84
		c-2.23,1.354-4.228,2.101-6.286,2.615c0.333-0.893,0.537-1.788,0.658-2.521c0.497-0.249,1.549-0.874,4.076-2.681
		c0.332-0.218,2.86-1.855,6.253-6.405c-0.125,1.049-0.258,1.925-0.343,2.266C36.318,28.304,35.363,30.419,34.398,31.724z
		 M38.656,24.976c-0.201,0.949-0.6,2.799-2.181,4.658c1.025-1.334,1.417-5.213,1.485-6.128c0.003-0.067,0.014-0.206,0.024-0.41
		c0.316-0.459,0.64-0.946,0.967-1.455c0.007,0.012,0.013,0.021,0.019,0.03C38.915,22.775,38.778,24.099,38.656,24.976z"/>
</g>
</svg>
