<?xml version="1.0" encoding="utf-8"?>
<!-- Generator: Adobe Illustrator 16.0.4, SVG Export Plug-In . SVG Version: 6.00 Build 0)  -->
<!DOCTYPE svg PUBLIC "-//W3C//DTD SVG 1.1//EN" "http://www.w3.org/Graphics/SVG/1.1/DTD/svg11.dtd">
<svg version="1.1" id="Layer_1" xmlns="http://www.w3.org/2000/svg" xmlns:xlink="http://www.w3.org/1999/xlink" x="0px" y="0px"
	 width="230px" height="40px" viewBox="0 0 230 40" enable-background="new 0 0 230 40" xml:space="preserve">
<g>
	<g>
		<g>
			<path d="M56.526,15.444c-0.56,0.559-1.47,0.987-2.471,0.987c-0.923,0-1.833-0.338-2.496-0.987
				c-1.001-0.976-1.156-2.327-1.156-3.797c0-1.469,0.155-2.82,1.156-3.796c0.663-0.65,1.573-0.988,2.496-0.988
				c1.001,0,1.898,0.391,2.457,0.949c0.533,0.546,0.871,1.248,0.91,2.106h-1.195c-0.014-0.507-0.208-0.949-0.508-1.287
				c-0.363-0.403-0.962-0.676-1.664-0.676c-0.624,0-1.234,0.247-1.677,0.702c-0.754,0.779-0.78,2.027-0.78,2.989
				s0.026,2.21,0.78,2.99c0.442,0.455,1.053,0.702,1.677,0.702c0.702,0,1.313-0.299,1.678-0.702
				c0.299-0.338,0.494-0.818,0.507-1.326h1.196C57.397,14.169,57.06,14.898,56.526,15.444z"/>
			<path d="M64.195,13.325h-4.654c0,0.598,0.234,1.248,0.638,1.65c0.299,0.3,0.702,0.469,1.209,0.469c0.52,0,0.949-0.144,1.222-0.43
				c0.183-0.182,0.299-0.363,0.39-0.715h1.079c-0.091,0.65-0.48,1.261-1.014,1.625c-0.468,0.312-1.053,0.494-1.677,0.494
				c-0.923,0-1.678-0.39-2.185-0.988c-0.546-0.637-0.818-1.508-0.818-2.443c0-0.794,0.143-1.495,0.507-2.106
				c0.468-0.793,1.339-1.378,2.482-1.378c0.846,0,1.521,0.325,2.003,0.845c0.532,0.585,0.845,1.43,0.832,2.314L64.195,13.325z
				 M62.675,11.037c-0.273-0.364-0.715-0.599-1.301-0.599c-1.195,0-1.78,0.976-1.807,1.938h3.51
				C63.077,11.881,62.935,11.387,62.675,11.037z"/>
			<path d="M70.02,16.25v-4.173c0-0.988-0.402-1.573-1.442-1.573c-0.638,0-1.145,0.416-1.431,1.014
				c-0.221,0.481-0.233,1.17-0.233,1.678v3.055h-1.105V9.671h0.962l0.091,0.988c0.338-0.754,1.248-1.157,1.989-1.157
				c1.495,0,2.275,0.896,2.275,2.418v4.329H70.02z"/>
			<path d="M75.245,16.34c-1.417,0-1.807-0.896-1.807-1.781v-3.938h-1.274V9.671h1.274V7.995l1.105-0.261v1.938h1.949v0.949h-1.949
				v3.809c0,0.638,0.272,0.897,0.884,0.897c0.468,0,1.131-0.117,1.131-0.117v0.949C76.26,16.237,75.856,16.34,75.245,16.34z"/>
			<path d="M80.836,10.699c-0.521,0-0.949,0.233-1.248,0.52c-0.533,0.507-0.599,1.417-0.599,2.106v2.925h-1.092V9.671h0.975
				l0.092,1.157c0.338-0.807,1.131-1.196,1.963-1.196c0.169,0,0.351,0.013,0.52,0.039v1.079
				C81.252,10.711,81.03,10.699,80.836,10.699z"/>
			<path d="M87.79,13.325h-4.654c0,0.598,0.234,1.248,0.638,1.65c0.299,0.3,0.702,0.469,1.209,0.469c0.52,0,0.949-0.144,1.222-0.43
				c0.182-0.182,0.299-0.363,0.391-0.715h1.078c-0.091,0.65-0.48,1.261-1.014,1.625c-0.468,0.312-1.053,0.494-1.677,0.494
				c-0.923,0-1.678-0.39-2.185-0.988c-0.546-0.637-0.818-1.508-0.818-2.443c0-0.794,0.143-1.495,0.507-2.106
				c0.468-0.793,1.339-1.378,2.482-1.378c0.846,0,1.521,0.325,2.003,0.845c0.532,0.585,0.845,1.43,0.832,2.314L87.79,13.325z
				 M86.27,11.037c-0.273-0.364-0.716-0.599-1.301-0.599c-1.195,0-1.78,0.976-1.807,1.938h3.51
				C86.672,11.881,86.529,11.387,86.27,11.037z"/>
			<path d="M94.524,7.669c-0.586,0-0.937,0.363-0.937,0.896v1.105h1.898v0.936h-1.898v5.643h-1.104v-5.643h-1.196V9.671h1.196v-1.17
				c0-0.988,0.767-1.769,1.91-1.769c0.455,0,0.858,0.052,1.223,0.117v0.923C95.265,7.734,94.992,7.669,94.524,7.669z"/>
			<path d="M100.843,15.652c-0.481,0.468-1.157,0.767-1.989,0.767s-1.508-0.299-1.989-0.767C96.149,14.95,95.929,14,95.929,12.96
				s0.221-1.989,0.936-2.691c0.481-0.468,1.157-0.767,1.989-0.767s1.508,0.299,1.989,0.767c0.715,0.702,0.936,1.651,0.936,2.691
				S101.558,14.95,100.843,15.652z M100.037,10.919c-0.273-0.273-0.663-0.468-1.184-0.468c-0.52,0-0.91,0.194-1.183,0.468
				c-0.469,0.48-0.611,1.273-0.611,2.041c0,0.767,0.143,1.56,0.611,2.041c0.272,0.273,0.663,0.468,1.183,0.468
				c0.521,0,0.91-0.194,1.184-0.468c0.468-0.481,0.61-1.274,0.61-2.041C100.647,12.193,100.505,11.4,100.037,10.919z"/>
			<path d="M106.367,10.699c-0.521,0-0.949,0.233-1.248,0.52c-0.533,0.507-0.599,1.417-0.599,2.106v2.925h-1.092V9.671h0.975
				l0.092,1.157c0.338-0.807,1.131-1.196,1.963-1.196c0.169,0,0.351,0.013,0.52,0.039v1.079
				C106.783,10.711,106.562,10.699,106.367,10.699z"/>
			<path d="M115.246,15.677c-0.507,0.521-1.287,0.741-2.146,0.741c-0.818,0-1.573-0.195-2.132-0.741
				c-0.403-0.39-0.637-0.949-0.637-1.508h1.104c0.014,0.455,0.221,0.793,0.533,1.027c0.299,0.221,0.767,0.299,1.183,0.299
				c0.455,0,0.871-0.078,1.21-0.364c0.182-0.143,0.324-0.416,0.324-0.715c0-0.494-0.351-0.845-1.026-0.937l-1.482-0.194
				c-0.988-0.156-1.612-0.768-1.612-1.769c0-0.507,0.247-0.988,0.546-1.287c0.43-0.441,1.118-0.728,1.938-0.728
				c0.871,0,1.651,0.272,2.093,0.832c0.286,0.351,0.469,0.728,0.469,1.261h-1.105c-0.013-0.338-0.182-0.65-0.377-0.819
				c-0.273-0.247-0.637-0.351-1.079-0.351c-0.26,0-0.455,0-0.767,0.13c-0.416,0.169-0.663,0.521-0.663,0.884
				c0,0.547,0.338,0.78,0.884,0.858c0.364,0.052,0.884,0.104,1.586,0.221c0.936,0.156,1.677,0.832,1.677,1.82
				C115.766,14.911,115.558,15.352,115.246,15.677z"/>
			<path d="M121.591,16.25l-0.092-1.001c-0.338,0.754-1.183,1.157-1.949,1.157c-1.495,0-2.249-0.897-2.249-2.418V9.671h1.104v4.16
				c0,0.988,0.364,1.573,1.404,1.573c0.441,0,0.806-0.195,1.092-0.494c0.416-0.429,0.546-1.145,0.546-1.82V9.671h1.105v6.578
				H121.591z"/>
			<path d="M129.065,15.677c-0.507,0.521-1.287,0.741-2.146,0.741c-0.819,0-1.573-0.195-2.132-0.741
				c-0.403-0.39-0.637-0.949-0.637-1.508h1.104c0.013,0.455,0.222,0.793,0.533,1.027c0.299,0.221,0.767,0.299,1.183,0.299
				c0.455,0,0.871-0.078,1.209-0.364c0.183-0.143,0.325-0.416,0.325-0.715c0-0.494-0.351-0.845-1.026-0.937l-1.482-0.194
				c-0.988-0.156-1.612-0.768-1.612-1.769c0-0.507,0.247-0.988,0.546-1.287c0.43-0.441,1.118-0.728,1.938-0.728
				c0.871,0,1.651,0.272,2.093,0.832c0.286,0.351,0.468,0.728,0.468,1.261h-1.104c-0.013-0.338-0.182-0.65-0.377-0.819
				c-0.273-0.247-0.637-0.351-1.079-0.351c-0.26,0-0.455,0-0.768,0.13c-0.416,0.169-0.662,0.521-0.662,0.884
				c0,0.547,0.338,0.78,0.884,0.858c0.364,0.052,0.884,0.104,1.586,0.221c0.936,0.156,1.677,0.832,1.677,1.82
				C129.585,14.911,129.377,15.352,129.065,15.677z"/>
			<path d="M133.251,16.34c-1.417,0-1.807-0.896-1.807-1.781v-3.938h-1.274V9.671h1.274V7.995l1.105-0.261v1.938h1.949v0.949h-1.949
				v3.809c0,0.638,0.272,0.897,0.884,0.897c0.468,0,1.131-0.117,1.131-0.117v0.949C134.266,16.237,133.862,16.34,133.251,16.34z"/>
			<path d="M140.687,16.34c-0.585,0-0.949-0.441-0.949-1.001h-0.025c-0.377,0.663-1.196,1.079-2.119,1.079
				c-1.509,0-2.263-1.014-2.263-2.028c0-0.845,0.546-1.95,2.341-2.054l2.002-0.117v-0.48c0-0.325-0.039-0.729-0.338-1.001
				c-0.222-0.209-0.547-0.339-1.079-0.339c-0.599,0-0.976,0.169-1.196,0.391c-0.208,0.208-0.325,0.468-0.325,0.793h-1.079
				c0.013-0.599,0.234-1.027,0.572-1.378c0.441-0.469,1.222-0.702,2.028-0.702c1.273,0,2.002,0.546,2.313,1.261
				c0.13,0.299,0.195,0.637,0.195,1.014v3.186c0,0.352,0.143,0.442,0.364,0.442c0.116,0,0.286-0.039,0.286-0.039v0.818
				C141.181,16.301,140.96,16.34,140.687,16.34z M139.673,13.078l-1.769,0.104c-0.663,0.039-1.442,0.352-1.442,1.184
				c0,0.585,0.363,1.131,1.3,1.131c0.507,0,1.001-0.169,1.352-0.533c0.391-0.403,0.56-0.949,0.56-1.495V13.078z"/>
			<path d="M142.831,8.164V6.863h1.287v1.301H142.831z M142.909,16.25V9.671h1.131v6.578H142.909z"/>
			<path d="M150.41,16.25v-4.173c0-0.988-0.402-1.573-1.442-1.573c-0.638,0-1.145,0.416-1.431,1.014
				c-0.221,0.481-0.233,1.17-0.233,1.678v3.055h-1.105V9.671h0.962l0.091,0.988c0.338-0.754,1.248-1.157,1.989-1.157
				c1.495,0,2.275,0.896,2.275,2.418v4.329H150.41z"/>
			<path d="M158.327,16.34c-0.585,0-0.949-0.441-0.949-1.001h-0.025c-0.377,0.663-1.196,1.079-2.119,1.079
				c-1.509,0-2.263-1.014-2.263-2.028c0-0.845,0.546-1.95,2.341-2.054l2.002-0.117v-0.48c0-0.325-0.039-0.729-0.338-1.001
				c-0.222-0.209-0.547-0.339-1.079-0.339c-0.599,0-0.976,0.169-1.196,0.391c-0.208,0.208-0.325,0.468-0.325,0.793h-1.079
				c0.013-0.599,0.234-1.027,0.572-1.378c0.441-0.469,1.222-0.702,2.028-0.702c1.273,0,2.002,0.546,2.313,1.261
				c0.13,0.299,0.195,0.637,0.195,1.014v3.186c0,0.352,0.143,0.442,0.364,0.442c0.116,0,0.286-0.039,0.286-0.039v0.818
				C158.821,16.301,158.601,16.34,158.327,16.34z M157.313,13.078l-1.769,0.104c-0.663,0.039-1.442,0.352-1.442,1.184
				c0,0.585,0.363,1.131,1.3,1.131c0.507,0,1.001-0.169,1.352-0.533c0.391-0.403,0.56-0.949,0.56-1.495V13.078z"/>
			<path d="M165.426,15.704c-0.429,0.442-1.053,0.715-1.858,0.715c-0.741,0-1.587-0.364-1.964-1.027l-0.077,0.858h-0.976V6.863
				h1.105v3.575c0.351-0.598,1.195-0.936,1.911-0.936c0.767,0,1.378,0.26,1.807,0.663c0.663,0.637,1.001,1.677,1.001,2.808
				C166.375,14.066,166.05,15.067,165.426,15.704z M163.385,10.438c-0.48,0-0.806,0.195-1.065,0.43
				c-0.547,0.48-0.729,1.273-0.729,2.093s0.182,1.612,0.729,2.093c0.26,0.234,0.585,0.43,1.065,0.43c1.47,0,1.859-1.313,1.859-2.522
				S164.854,10.438,163.385,10.438z"/>
			<path d="M169.364,16.328c-0.962,0-1.378-0.572-1.378-1.612V6.863h1.105v7.788c0,0.441,0.143,0.676,0.598,0.676
				c0.364,0,0.455-0.013,0.455-0.013v0.936C170.145,16.25,169.897,16.328,169.364,16.328z"/>
			<path d="M176.774,13.325h-4.654c0,0.598,0.234,1.248,0.638,1.65c0.299,0.3,0.702,0.469,1.209,0.469
				c0.52,0,0.949-0.144,1.222-0.43c0.182-0.182,0.299-0.363,0.391-0.715h1.078c-0.091,0.65-0.48,1.261-1.014,1.625
				c-0.468,0.312-1.053,0.494-1.677,0.494c-0.923,0-1.678-0.39-2.185-0.988c-0.546-0.637-0.818-1.508-0.818-2.443
				c0-0.794,0.143-1.495,0.507-2.106c0.468-0.793,1.339-1.378,2.482-1.378c0.846,0,1.521,0.325,2.003,0.845
				c0.532,0.585,0.845,1.43,0.832,2.314L176.774,13.325z M175.254,11.037c-0.273-0.364-0.716-0.599-1.301-0.599
				c-1.195,0-1.78,0.976-1.807,1.938h3.51C175.656,11.881,175.514,11.387,175.254,11.037z"/>
			<path d="M183.509,7.669c-0.586,0-0.937,0.363-0.937,0.896v1.105h1.898v0.936h-1.898v5.643h-1.104v-5.643h-1.196V9.671h1.196
				v-1.17c0-0.988,0.767-1.769,1.91-1.769c0.455,0,0.858,0.052,1.223,0.117v0.923C184.249,7.734,183.977,7.669,183.509,7.669z"/>
			<path d="M190.333,16.34c-0.585,0-0.949-0.441-0.949-1.001h-0.025c-0.377,0.663-1.196,1.079-2.119,1.079
				c-1.509,0-2.263-1.014-2.263-2.028c0-0.845,0.546-1.95,2.341-2.054l2.002-0.117v-0.48c0-0.325-0.039-0.729-0.338-1.001
				c-0.222-0.209-0.547-0.339-1.079-0.339c-0.599,0-0.976,0.169-1.196,0.391c-0.208,0.208-0.325,0.468-0.325,0.793h-1.079
				c0.013-0.599,0.234-1.027,0.572-1.378c0.441-0.469,1.222-0.702,2.028-0.702c1.273,0,2.002,0.546,2.313,1.261
				c0.13,0.299,0.195,0.637,0.195,1.014v3.186c0,0.352,0.143,0.442,0.364,0.442c0.116,0,0.286-0.039,0.286-0.039v0.818
				C190.827,16.301,190.606,16.34,190.333,16.34z M189.319,13.078l-1.769,0.104c-0.663,0.039-1.442,0.352-1.442,1.184
				c0,0.585,0.363,1.131,1.3,1.131c0.507,0,1.001-0.169,1.352-0.533c0.391-0.403,0.56-0.949,0.56-1.495V13.078z"/>
			<path d="M196.911,15.677c-0.507,0.521-1.287,0.741-2.146,0.741c-0.819,0-1.573-0.195-2.132-0.741
				c-0.403-0.39-0.637-0.949-0.637-1.508h1.104c0.013,0.455,0.222,0.793,0.533,1.027c0.299,0.221,0.767,0.299,1.183,0.299
				c0.455,0,0.871-0.078,1.209-0.364c0.183-0.143,0.325-0.416,0.325-0.715c0-0.494-0.351-0.845-1.026-0.937l-1.482-0.194
				c-0.988-0.156-1.612-0.768-1.612-1.769c0-0.507,0.247-0.988,0.546-1.287c0.43-0.441,1.118-0.728,1.938-0.728
				c0.871,0,1.651,0.272,2.093,0.832c0.286,0.351,0.468,0.728,0.468,1.261h-1.104c-0.013-0.338-0.182-0.65-0.377-0.819
				c-0.273-0.247-0.637-0.351-1.079-0.351c-0.26,0-0.455,0-0.768,0.13c-0.416,0.169-0.662,0.521-0.662,0.884
				c0,0.547,0.338,0.78,0.884,0.858c0.364,0.052,0.884,0.104,1.586,0.221c0.936,0.156,1.677,0.832,1.677,1.82
				C197.431,14.911,197.223,15.352,196.911,15.677z"/>
			<path d="M203.281,16.25v-4.173c0-0.988-0.402-1.573-1.442-1.573c-0.638,0-1.145,0.416-1.431,1.014
				c-0.221,0.481-0.233,1.17-0.233,1.678v3.055h-1.105V6.863h1.105v3.68c0.39-0.676,1.183-1.04,1.924-1.04
				c1.495,0,2.288,0.896,2.288,2.418v4.329H203.281z"/>
			<path d="M206.361,8.164V6.863h1.287v1.301H206.361z M206.439,16.25V9.671h1.131v6.578H206.439z"/>
			<path d="M214.136,15.652c-0.481,0.468-1.157,0.767-1.989,0.767s-1.508-0.299-1.989-0.767c-0.715-0.702-0.936-1.651-0.936-2.691
				s0.221-1.989,0.936-2.691c0.481-0.468,1.157-0.767,1.989-0.767s1.508,0.299,1.989,0.767c0.715,0.702,0.936,1.651,0.936,2.691
				S214.851,14.95,214.136,15.652z M213.33,10.919c-0.273-0.273-0.663-0.468-1.184-0.468c-0.52,0-0.91,0.194-1.183,0.468
				c-0.469,0.48-0.611,1.273-0.611,2.041c0,0.767,0.143,1.56,0.611,2.041c0.272,0.273,0.663,0.468,1.183,0.468
				c0.521,0,0.91-0.194,1.184-0.468c0.468-0.481,0.61-1.274,0.61-2.041C213.94,12.193,213.798,11.4,213.33,10.919z"/>
			<path d="M220.935,16.25v-4.173c0-0.988-0.402-1.573-1.442-1.573c-0.638,0-1.145,0.416-1.431,1.014
				c-0.221,0.481-0.233,1.17-0.233,1.678v3.055h-1.105V9.671h0.962l0.091,0.988c0.339-0.754,1.248-1.157,1.989-1.157
				c1.495,0,2.275,0.896,2.275,2.418v4.329H220.935z"/>
		</g>
	</g>
	<g>
		<g>
			<path fill="#1E1E1E" d="M51.118,34.352v-9.218h0.676v8.581h4.784v0.637H51.118z"/>
			<path fill="#1E1E1E" d="M62.064,33.741c-0.455,0.455-1.092,0.78-1.898,0.78c-0.806,0-1.442-0.325-1.897-0.78
				c-0.677-0.676-0.924-1.534-0.924-2.639c0-1.105,0.247-1.963,0.924-2.64c0.455-0.455,1.092-0.779,1.897-0.779
				c0.807,0,1.443,0.324,1.898,0.779c0.676,0.677,0.923,1.534,0.923,2.64C62.987,32.207,62.74,33.065,62.064,33.741z M61.597,28.892
				c-0.338-0.352-0.807-0.572-1.431-0.572s-1.092,0.221-1.43,0.572c-0.585,0.61-0.729,1.365-0.729,2.21s0.144,1.599,0.729,2.21
				c0.338,0.351,0.806,0.572,1.43,0.572s1.093-0.222,1.431-0.572c0.585-0.611,0.728-1.365,0.728-2.21S62.182,29.502,61.597,28.892z"
				/>
			<path fill="#1E1E1E" d="M69.487,34.352v-4.251c0-1.131-0.494-1.781-1.678-1.781c-1.599,0-2.157,1.378-2.157,2.782v3.25h-0.65
				v-6.5h0.572l0.078,1.183c0.363-0.818,1.286-1.352,2.196-1.352c1.495,0,2.288,0.923,2.288,2.379v4.29H69.487z"/>
			<path fill="#1E1E1E" d="M77.027,34.352l-0.078-1.144c-0.351,0.806-1.287,1.312-2.158,1.312c-0.741,0-1.3-0.234-1.729-0.611
				c-0.728-0.637-1.065-1.677-1.065-2.795c0-1.065,0.325-2.105,1.014-2.756c0.43-0.416,1.015-0.676,1.769-0.676
				c0.923,0,1.82,0.52,2.171,1.261v-3.979h0.65v9.387H77.027z M76.144,28.827c-0.325-0.312-0.768-0.507-1.365-0.507
				c-0.611,0-1.054,0.221-1.392,0.572c-0.507,0.546-0.728,1.378-0.728,2.21c0,0.923,0.26,1.794,0.857,2.327
				c0.325,0.286,0.741,0.455,1.287,0.455c0.572,0,1.001-0.208,1.326-0.521c0.585-0.571,0.832-1.365,0.832-2.262
				C76.962,30.14,76.741,29.386,76.144,28.827z"/>
			<path fill="#1E1E1E" d="M84.333,33.741c-0.455,0.455-1.092,0.78-1.898,0.78c-0.806,0-1.442-0.325-1.897-0.78
				c-0.677-0.676-0.923-1.534-0.923-2.639c0-1.105,0.246-1.963,0.923-2.64c0.455-0.455,1.092-0.779,1.897-0.779
				c0.807,0,1.443,0.324,1.898,0.779c0.676,0.677,0.923,1.534,0.923,2.64C85.256,32.207,85.009,33.065,84.333,33.741z
				 M83.865,28.892c-0.338-0.352-0.807-0.572-1.431-0.572s-1.092,0.221-1.43,0.572c-0.585,0.61-0.729,1.365-0.729,2.21
				s0.144,1.599,0.729,2.21c0.338,0.351,0.806,0.572,1.43,0.572s1.093-0.222,1.431-0.572c0.585-0.611,0.728-1.365,0.728-2.21
				S84.45,29.502,83.865,28.892z"/>
			<path fill="#1E1E1E" d="M91.756,34.352v-4.251c0-1.131-0.494-1.781-1.678-1.781c-1.599,0-2.157,1.378-2.157,2.782v3.25h-0.65
				v-6.5h0.572l0.078,1.183c0.363-0.818,1.287-1.352,2.196-1.352c1.495,0,2.288,0.923,2.288,2.379v4.29H91.756z"/>
			<path fill="#1E1E1E" d="M99.906,34.521c-0.806,0-1.456-0.312-1.911-0.767c-0.676-0.677-0.91-1.548-0.91-2.652
				c0-1.105,0.234-1.977,0.91-2.652c0.455-0.455,1.105-0.767,1.911-0.767c1.353,0,2.354,0.884,2.51,2.197h-0.677
				c-0.143-0.897-0.845-1.561-1.833-1.561c-0.624,0-1.104,0.208-1.442,0.559c-0.585,0.611-0.716,1.379-0.716,2.224
				s0.131,1.625,0.716,2.236c0.338,0.351,0.818,0.546,1.442,0.546c1.001,0,1.69-0.702,1.847-1.586h0.688
				C102.272,33.559,101.271,34.521,99.906,34.521z"/>
			<path fill="#1E1E1E" d="M108.46,33.741c-0.455,0.455-1.092,0.78-1.898,0.78c-0.806,0-1.442-0.325-1.897-0.78
				c-0.677-0.676-0.923-1.534-0.923-2.639c0-1.105,0.246-1.963,0.923-2.64c0.455-0.455,1.092-0.779,1.897-0.779
				c0.807,0,1.443,0.324,1.898,0.779c0.676,0.677,0.923,1.534,0.923,2.64C109.383,32.207,109.136,33.065,108.46,33.741z
				 M107.992,28.892c-0.338-0.352-0.807-0.572-1.431-0.572s-1.092,0.221-1.43,0.572c-0.585,0.61-0.729,1.365-0.729,2.21
				s0.144,1.599,0.729,2.21c0.338,0.351,0.806,0.572,1.43,0.572s1.093-0.222,1.431-0.572c0.585-0.611,0.728-1.365,0.728-2.21
				S108.577,29.502,107.992,28.892z"/>
			<path fill="#1E1E1E" d="M112.659,34.43c-0.832,0-1.3-0.429-1.3-1.378v-8.087h0.65v8.061c0,0.442,0.13,0.78,0.676,0.78
				c0.26,0,0.377,0,0.559-0.026v0.572C113.102,34.391,112.933,34.43,112.659,34.43z"/>
			<path fill="#1E1E1E" d="M116.286,34.43c-0.832,0-1.3-0.429-1.3-1.378v-8.087h0.65v8.061c0,0.442,0.13,0.78,0.676,0.78
				c0.26,0,0.377,0,0.559-0.026v0.572C116.729,34.391,116.56,34.43,116.286,34.43z"/>
			<path fill="#1E1E1E" d="M123.644,31.258h-4.966c0.013,0.754,0.26,1.456,0.676,1.95c0.364,0.429,0.871,0.688,1.573,0.688
				c0.572,0,1.066-0.208,1.417-0.572c0.234-0.247,0.416-0.532,0.494-0.923h0.676c-0.091,0.56-0.363,1.014-0.728,1.365
				c-0.468,0.468-1.118,0.754-1.859,0.754c-0.936,0-1.599-0.39-2.066-0.923c-0.533-0.624-0.832-1.482-0.832-2.47
				c0-0.819,0.13-1.626,0.637-2.314c0.546-0.741,1.3-1.131,2.21-1.131c1.755,0,2.782,1.508,2.782,3.146
				C123.657,30.985,123.644,31.102,123.644,31.258z M120.875,28.293c-1.339,0-2.185,1.079-2.185,2.366h4.304
				C122.968,29.425,122.201,28.293,120.875,28.293z"/>
			<path fill="#1E1E1E" d="M130.495,36.537c-0.56,0.571-1.534,0.767-2.574,0.767c-0.988,0-1.872-0.195-2.418-0.754
				c-0.286-0.299-0.455-0.676-0.455-1.17c0-0.624,0.364-1.235,0.975-1.521c-0.455-0.13-0.818-0.611-0.818-1.065
				c0-0.56,0.285-0.949,0.779-1.235c-0.402-0.391-0.649-0.923-0.649-1.6c0-1.403,1.065-2.274,2.431-2.274
				c0.572,0,1.092,0.155,1.521,0.441c0.169-0.559,0.728-0.884,1.312-0.884c0.078,0,0.169,0.026,0.247,0.026v0.559
				c-0.078,0-0.169-0.025-0.247-0.025c-0.468,0-0.806,0.26-0.896,0.701c0.324,0.377,0.52,0.871,0.52,1.456
				c0,1.404-1.092,2.249-2.457,2.249c-0.48,0-0.923-0.104-1.3-0.299c-0.338,0.13-0.65,0.403-0.65,0.807
				c0,0.312,0.195,0.507,0.455,0.61c0.234,0.091,0.624,0.104,0.871,0.104h1.417c0.832,0,1.495,0.208,1.911,0.637
				c0.312,0.312,0.521,0.689,0.521,1.261C130.989,35.834,130.781,36.237,130.495,36.537z M130.026,34.521
				c-0.299-0.312-0.806-0.48-1.572-0.48h-1.717c-0.546,0.13-1.078,0.571-1.078,1.339c0,0.338,0.143,0.624,0.351,0.818
				c0.468,0.442,1.274,0.521,1.924,0.521c0.65,0,1.573-0.078,2.067-0.572c0.195-0.195,0.338-0.48,0.338-0.819
				C130.339,34.963,130.222,34.729,130.026,34.521z M127.765,28.268c-1.014,0-1.794,0.649-1.794,1.689s0.78,1.664,1.794,1.664
				s1.808-0.624,1.808-1.664S128.778,28.268,127.765,28.268z"/>
			<path fill="#1E1E1E" d="M137.45,31.258h-4.967c0.013,0.754,0.26,1.456,0.676,1.95c0.364,0.429,0.871,0.688,1.573,0.688
				c0.572,0,1.066-0.208,1.417-0.572c0.234-0.247,0.416-0.532,0.494-0.923h0.676c-0.091,0.56-0.363,1.014-0.728,1.365
				c-0.468,0.468-1.118,0.754-1.859,0.754c-0.936,0-1.599-0.39-2.067-0.923c-0.532-0.624-0.832-1.482-0.832-2.47
				c0-0.819,0.131-1.626,0.638-2.314c0.546-0.741,1.3-1.131,2.21-1.131c1.755,0,2.782,1.508,2.782,3.146
				C137.463,30.985,137.45,31.102,137.45,31.258z M134.681,28.293c-1.339,0-2.185,1.079-2.185,2.366h4.304
				C136.773,29.425,136.007,28.293,134.681,28.293z"/>
			<path fill="#1E1E1E" d="M146.354,33.741c-0.455,0.455-1.092,0.78-1.898,0.78c-0.806,0-1.442-0.325-1.897-0.78
				c-0.677-0.676-0.923-1.534-0.923-2.639c0-1.105,0.246-1.963,0.923-2.64c0.455-0.455,1.092-0.779,1.897-0.779
				c0.807,0,1.443,0.324,1.898,0.779c0.676,0.677,0.923,1.534,0.923,2.64C147.277,32.207,147.03,33.065,146.354,33.741z
				 M145.887,28.892c-0.338-0.352-0.807-0.572-1.431-0.572s-1.092,0.221-1.43,0.572c-0.585,0.61-0.729,1.365-0.729,2.21
				s0.144,1.599,0.729,2.21c0.338,0.351,0.806,0.572,1.43,0.572s1.093-0.222,1.431-0.572c0.585-0.611,0.728-1.365,0.728-2.21
				S146.472,29.502,145.887,28.892z"/>
			<path fill="#1E1E1E" d="M151.542,25.473c-0.819,0-1.235,0.429-1.235,1.261v1.118h2.041v0.598h-2.041v5.902h-0.65V28.45h-1.3
				v-0.598h1.3v-1.145c0-0.987,0.611-1.819,1.833-1.819c0.377,0,0.677,0.025,0.988,0.077v0.585
				C152.218,25.511,151.919,25.473,151.542,25.473z"/>
			<path fill="#1E1E1E" d="M158.9,25.473c-0.819,0-1.235,0.429-1.235,1.261v1.118h2.041v0.598h-2.041v5.902h-0.65V28.45h-1.3v-0.598
				h1.3v-1.145c0-0.987,0.611-1.819,1.833-1.819c0.377,0,0.677,0.025,0.988,0.077v0.585C159.576,25.511,159.277,25.473,158.9,25.473
				z"/>
			<path fill="#1E1E1E" d="M166.154,34.391c-0.807,0-1.027-0.585-1.027-1.274c-0.351,0.924-1.339,1.404-2.34,1.404
				c-1.261,0-2.236-0.754-2.236-2.002c0-1.157,0.897-1.846,2.185-1.938l2.392-0.169v-0.637c0-1.079-0.728-1.482-1.716-1.482
				c-1.027,0-1.808,0.469-1.872,1.431h-0.65c0.091-1.313,1.118-2.041,2.522-2.041c0.884,0,1.846,0.299,2.197,1.195
				c0.155,0.403,0.169,0.819,0.169,1.248v2.965c0,0.441,0.064,0.702,0.507,0.702c0.078,0,0.117,0,0.182-0.014v0.572
				C166.311,34.378,166.311,34.391,166.154,34.391z M165.127,31.011l-2.327,0.143c-0.962,0.065-1.586,0.572-1.586,1.365
				c0,0.936,0.702,1.404,1.625,1.404c1.639,0,2.288-1.326,2.288-2.574V31.011z"/>
			<path fill="#1E1E1E" d="M172.576,33.741c-0.468,0.521-1.248,0.78-2.106,0.78c-0.884,0-1.638-0.273-2.132-0.832
				c-0.364-0.416-0.521-0.78-0.546-1.312h0.663c0.039,0.39,0.208,0.728,0.48,1.001c0.377,0.363,0.91,0.52,1.534,0.52
				c0.676,0,1.209-0.156,1.534-0.481c0.234-0.233,0.352-0.454,0.352-0.832c0-0.585-0.416-1.078-1.196-1.183l-1.262-0.169
				c-0.532-0.065-1.104-0.234-1.469-0.65c-0.233-0.272-0.364-0.61-0.364-1.026c0-0.521,0.222-0.949,0.56-1.262
				c0.468-0.429,1.104-0.61,1.781-0.61c0.779,0,1.521,0.247,1.963,0.767c0.299,0.352,0.48,0.78,0.494,1.196h-0.65
				c-0.025-0.208-0.117-0.533-0.325-0.78c-0.299-0.351-0.806-0.572-1.481-0.572c-0.508,0-0.885,0.092-1.17,0.3
				c-0.325,0.233-0.508,0.546-0.508,0.896c0,0.546,0.273,0.962,1.262,1.092l1.234,0.169c1.223,0.169,1.795,1.001,1.795,1.795
				C173.019,33.026,172.862,33.416,172.576,33.741z"/>
			<path fill="#1E1E1E" d="M179.518,34.352v-4.251c0-1.131-0.494-1.808-1.678-1.808c-1.599,0-2.157,1.404-2.157,2.809v3.25h-0.65
				v-9.387h0.65v4.083c0.363-0.832,1.287-1.365,2.196-1.365c1.495,0,2.288,0.923,2.288,2.379v4.29H179.518z"/>
			<path fill="#1E1E1E" d="M182.56,26.044v-0.91h0.91v0.91H182.56z M182.677,34.352v-6.5h0.688v6.5H182.677z"/>
			<path fill="#1E1E1E" d="M190.151,33.741c-0.455,0.455-1.092,0.78-1.898,0.78c-0.806,0-1.442-0.325-1.897-0.78
				c-0.677-0.676-0.923-1.534-0.923-2.639c0-1.105,0.246-1.963,0.923-2.64c0.455-0.455,1.092-0.779,1.897-0.779
				c0.807,0,1.443,0.324,1.898,0.779c0.676,0.677,0.923,1.534,0.923,2.64C191.074,32.207,190.827,33.065,190.151,33.741z
				 M189.684,28.892c-0.338-0.352-0.807-0.572-1.431-0.572s-1.092,0.221-1.43,0.572c-0.585,0.61-0.729,1.365-0.729,2.21
				s0.144,1.599,0.729,2.21c0.338,0.351,0.806,0.572,1.43,0.572s1.093-0.222,1.431-0.572c0.585-0.611,0.728-1.365,0.728-2.21
				S190.269,29.502,189.684,28.892z"/>
			<path fill="#1E1E1E" d="M197.574,34.352v-4.251c0-1.131-0.494-1.781-1.678-1.781c-1.599,0-2.157,1.378-2.157,2.782v3.25h-0.65
				v-6.5h0.572l0.078,1.183c0.363-0.818,1.287-1.352,2.196-1.352c1.495,0,2.288,0.923,2.288,2.379v4.29H197.574z"/>
		</g>
	</g>
	<path d="M39.286,13.255c-0.374-1.002-1.542-3.875-4.555-6.008c-0.164-0.149-0.76-1.011-2.85-2.134
		C30.52,4.38,28.797,3.53,28.514,3.431c-0.21-0.074-0.423-0.148-1.488-0.453c-0.318-0.111-0.757-0.12-1.097-0.229
		c-3.9-1.125-4.884-0.715-6.513-0.471c-0.901,0.269-1.966,0.58-2.551,0.836c-0.401,0.054-0.68,0.113-0.822,0.132
		c-2.396,0.713-3.112,1.163-4.384,1.897C9.882,6.364,9.113,7.11,8.846,7.338c-2.446,2.868-4.47,7.652-4.379,11.876
		c0.015,0.695,0.202,2.923,0.214,3.084c0.017,0.101,0.02,1.533,1.412,5.253c1.421,3.872,6.296,7.324,6.31,7.223l0.209,0.138
		c0.323,0.27,0.784,0.521,1.196,0.727c0.07,0.013,2.529,1.152,4.782,1.623c0.654,0.137,1.284,0.199,1.877,0.259
		c0.862,0.107,1.681,0.161,2.451,0.172c-0.018,0.007-0.034,0.014-0.05,0.019l0.077-0.018c4.422,0.057,7.279-1.274,7.678-1.58
		c0.392-0.234,0.783-0.512,1.171-0.817c0.212-0.124,0.354-0.225,0.427-0.28c2.731-1.635,5.496-5.281,6.252-6.73
		c1.125-1.822,1.646-5.53,1.718-6.514C40.229,21.228,40.319,15.783,39.286,13.255z M36.956,15.337c0-0.544,0.2-1.108,0.305-1.69
		c0.908,1.658,1.38,3.318,1.587,4.637c-0.342-0.407-0.85-0.812-1.527-1.588h-0.04c-0.123,0-0.326-0.815-0.326-1.355
		C36.956,15.341,36.956,15.339,36.956,15.337z M38.355,20.748c-0.07,0.11-0.137,0.212-0.198,0.303
		c-0.06,0.094-0.122,0.188-0.179,0.282c-0.015-0.316-0.04-0.662-0.075-1.03v0C38.066,20.455,38.219,20.604,38.355,20.748z
		 M37.127,22.64c-3.546,4.986-8.08,8.337-9.939,9.54c-0.146,0.094-0.292,0.172-0.442,0.259c0.007-0.101,0.013-0.191,0.016-0.261
		c1.124-0.756,2.228-1.577,2.43-1.771c0.668-0.544,1.368-1.299,3.327-4.155c0.218-0.293,2.067-2.905,3.529-7.546
		c0.256,0.206,0.592,0.579,1.306,1l0,0c0,0-0.065,0.046-0.064,0.047l-0.032,0.046h-0.016C37.289,20.575,37.22,21.519,37.127,22.64z
		 M26.187,13.862c2.327,0.636,5.999,1.832,8.857,3.966c-1.703,5.09-4.42,8.952-5.625,10.544c-0.718,0.947-1.532,1.535-2.452,2.293
		C27.251,22.945,26.958,17.185,26.187,13.862z M36.18,13.225c0,0.002,0,0.002,0,0.002c-0.775-0.711-0.708-1.435-1.119-2.162
		c-0.137-0.238-0.58-0.631-1.653-1.57c0.799,0.605,1.406,1.136,1.809,1.507c0.375,0.345,0.752,0.723,1.063,1.121
		C36.244,12.534,36.18,12.9,36.18,13.225z M27.772,5.213c0.506,0,1.021-0.26,1.545-0.336c1.232,0.566,2.365,1.19,3.369,1.817
		c1.259,1.098,2.146,2.243,2.519,2.881c0.188,0.255,0.406,0.585,0.638,0.958c-0.437-0.413-1.119-1.018-2.208-1.931
		C33.41,8.398,31.729,6.998,27.772,5.213L27.772,5.213z M33.684,10.812c0.939,0.939,1.641,2.255,2.163,3.586
		c-0.084,0.391-0.176,0.776-0.274,1.159c-0.703-0.502-1.529-1.047-2.5-1.641c-1.903-1.29-5.915-2.142-7.816-2.521l0,0
		c-0.562-1.797-1.12-2.762-1.393-3.56c-0.097-0.221-0.212-0.44-0.332-0.661l0.002-0.001c0.895-0.588,1.83-1.087,2.802-1.48
		C29.727,7.174,31.87,8.995,33.684,10.812z M23.924,11.15c-0.656-0.075-2.062-0.194-3.817-0.194c-0.314,0-0.642,0.004-0.977,0.013
		c1.089-1.177,2.275-2.271,3.545-3.2C23.122,8.822,23.543,9.946,23.924,11.15z M26.248,3.818c-0.01,0.003-0.019,0.005-0.029,0.01
		l-0.012,0.003c-0.011,0.005-0.025,0.01-0.035,0.016c-0.035,0.012-0.068,0.025-0.101,0.039c-0.014,0.007-0.03,0.015-0.045,0.02
		c-0.032,0.014-0.063,0.028-0.096,0.043c-0.015,0.007-0.029,0.014-0.042,0.021c-0.043,0.022-0.086,0.167-0.131,0.19l-0.004,0.126
		h-0.001c-0.043,0-0.087-0.075-0.131-0.052c-0.013,0.007-0.026-0.047-0.037-0.04c-0.033,0.019-0.066,0.01-0.099,0.029
		c-0.015,0.008-0.025,0-0.038,0.008c-0.037,0.023-0.071,0.038-0.106,0.063c-0.36-0.124-0.736-0.248-1.126-0.369
		c-0.459-0.129-0.897-0.238-1.318-0.325C24.213,3.618,25.359,3.709,26.248,3.818z M21.52,4.245c0.73,0.138,1.63,0.264,1.995,0.394
		c0.226,0.071,0.439,0.145,0.656,0.218c-0.027,0.015-0.054,0.027-0.081,0.042c-0.011,0.004-0.02,0.011-0.03,0.016
		c-0.042,0.022-0.085,0.046-0.128,0.067c-0.038,0.021-0.073,0.041-0.11,0.062c-0.048,0.026-0.098,0.054-0.145,0.08
		c-0.032,0.019-0.065,0.035-0.097,0.053c-0.065,0.039-0.132,0.076-0.201,0.115c-0.012,0.008-0.025,0.016-0.041,0.024
		c-0.08,0.046-0.158,0.093-0.237,0.141c-0.026,0.017-0.053,0.031-0.077,0.047c-0.053,0.034-0.106,0.066-0.159,0.099
		c-0.033,0.02-0.064,0.041-0.093,0.059c-0.048,0.031-0.094,0.06-0.141,0.091c0,0-0.001,0.001-0.003,0.002l-0.001,0.001
		c-0.435-0.595-0.896-1.127-1.302-1.524C21.389,4.236,21.454,4.241,21.52,4.245z M12.751,7.076c0.677-0.798,1.455-1.524,2.254-1.895
		c0.385-0.197,1.028-0.489,1.413-0.593c1.181-0.278,2.069-0.391,2.818-0.424c1.009,0.234,1.961,0.858,2.707,2.077
		c-0.037,0.028-0.072,0.055-0.107,0.084c-0.025,0.021-0.05,0.041-0.074,0.06l-0.004,0.003c-0.026,0.019-0.052,0.041-0.079,0.058
		c-0.02,0.017-0.041,0.03-0.064,0.047c-0.02,0.014-0.041,0.031-0.065,0.047l-0.007,0.003C21.52,6.561,21.493,6.58,21.466,6.6
		l-0.015,0.013c-0.01,0.008-0.021,0.015-0.032,0.025l-0.017,0.012c-0.015,0.013-0.033,0.024-0.048,0.039l-0.015,0.011
		c-0.012,0.009-0.025,0.021-0.04,0.031l-0.021,0.017c-0.013,0.01-0.024,0.021-0.039,0.031l-0.023,0.018
		c-0.019,0.018-0.039,0.032-0.06,0.05c-0.008,0.007-0.015,0.014-0.025,0.02c-0.013,0.012-0.027,0.024-0.043,0.038
		c-0.011,0.007-0.02,0.016-0.031,0.027c-0.014,0.01-0.03,0.022-0.045,0.036c-0.01,0.01-0.02,0.017-0.031,0.026
		c-0.023,0.021-0.048,0.043-0.076,0.064c-0.008,0.009-0.018,0.019-0.029,0.025c-0.018,0.018-0.039,0.033-0.057,0.051
		c-0.012,0.01-0.023,0.021-0.038,0.033c-0.02,0.016-0.039,0.035-0.059,0.053c-0.011,0.011-0.023,0.02-0.035,0.03
		c-0.03,0.027-0.062,0.056-0.094,0.086c-0.013,0.011-0.025,0.021-0.039,0.033c-0.025,0.021-0.044,0.042-0.07,0.065
		c-0.014,0.013-0.029,0.027-0.043,0.04c-0.027,0.024-0.055,0.05-0.081,0.074c-0.011,0.011-0.023,0.022-0.034,0.032
		c-0.039,0.038-0.079,0.075-0.119,0.112c-0.016,0.014-0.031,0.025-0.044,0.043c-0.029,0.026-0.058,0.053-0.088,0.081
		c-0.017,0.017-0.034,0.034-0.05,0.05C19.985,7.9,19.951,7.934,19.913,7.97c-0.011,0.01-0.021,0.021-0.033,0.034
		c-0.047,0.042-0.096,0.09-0.145,0.137c-0.017,0.017-0.034,0.033-0.051,0.049c-0.038,0.036-0.076,0.072-0.113,0.11
		c-0.018,0.017-0.036,0.036-0.054,0.053C19.471,8.402,19.42,8.451,19.37,8.5l-0.023,0.022c-0.057,0.056-0.116,0.116-0.174,0.175
		c-0.02,0.02-0.04,0.037-0.059,0.058c-0.046,0.046-0.092,0.092-0.14,0.139c-0.018,0.021-0.037,0.039-0.057,0.058
		c-0.067,0.067-0.135,0.134-0.201,0.204c-0.008,0.008-0.015,0.017-0.023,0.027l-0.01,0.009l-0.017,0.021l-0.013,0.013l-0.016,0.021
		L18.62,9.262l-0.019,0.021l-0.018,0.021l-0.02,0.021l-0.022,0.021c-0.007,0.009-0.014,0.018-0.021,0.023
		c-0.008,0.007-0.017,0.017-0.025,0.027l-0.021,0.021c-0.073,0.074-0.16,0.165-0.256,0.269l-0.01,0.01
		c-0.021,0.021-0.039,0.04-0.057,0.062l-0.019,0.02c-0.018,0.02-0.034,0.038-0.053,0.058l-0.022,0.022
		c-0.016,0.019-0.035,0.039-0.054,0.059c-0.007,0.007-0.015,0.016-0.023,0.026c-0.017,0.019-0.037,0.04-0.055,0.059
		c-0.008,0.011-0.019,0.021-0.028,0.029c-0.018,0.021-0.039,0.043-0.057,0.065c-0.008,0.009-0.018,0.019-0.024,0.029
		c-0.022,0.025-0.048,0.049-0.069,0.075l-0.02,0.021c-0.028,0.034-0.057,0.065-0.087,0.099l-0.003,0.003
		c-0.062,0.073-0.127,0.146-0.196,0.223c-0.006,0.009-0.015,0.018-0.021,0.028c-0.026,0.027-0.052,0.06-0.079,0.089
		c-0.008,0.013-0.02,0.024-0.031,0.036c-0.022,0.03-0.048,0.059-0.074,0.089c-0.012,0.012-0.022,0.024-0.034,0.039
		c-0.023,0.027-0.051,0.059-0.075,0.09c-0.011,0.014-0.023,0.029-0.036,0.042c-0.025,0.031-0.049,0.061-0.074,0.092
		c-0.012,0.014-0.022,0.025-0.031,0.037c-1.877,0.165-3.863,0.511-5.634,1.168C11.581,10.591,12.025,8.858,12.751,7.076z
		 M15.23,13.425c-0.004,0.008-0.009,0.016-0.016,0.022c-0.02,0.029-0.04,0.058-0.059,0.087c-0.03,0.042-0.06,0.086-0.091,0.131
		c-0.019,0.03-0.041,0.062-0.063,0.093c-0.028,0.044-0.061,0.09-0.091,0.135c-0.021,0.029-0.041,0.06-0.062,0.092
		c-0.035,0.053-0.07,0.104-0.106,0.158c-0.016,0.026-0.033,0.048-0.048,0.074c-0.051,0.078-0.101,0.156-0.154,0.235
		c-0.02,0.029-0.041,0.061-0.06,0.092c-0.032,0.049-0.064,0.1-0.098,0.152c-0.024,0.037-0.047,0.075-0.073,0.113
		c-0.02,0.03-0.038,0.061-0.059,0.092c-0.007,0.01-0.015,0.023-0.021,0.036c-0.053,0.083-0.106,0.167-0.16,0.25
		c-0.014,0.022-0.029,0.044-0.042,0.067c-0.068,0.109-0.137,0.219-0.205,0.329c-0.012,0.019-0.023,0.037-0.037,0.055
		c-0.054,0.093-0.111,0.185-0.167,0.279c-0.021,0.036-0.048,0.074-0.069,0.113c-0.046,0.078-0.092,0.155-0.141,0.233
		c-0.025,0.043-0.05,0.086-0.075,0.128c-0.048,0.079-0.096,0.16-0.143,0.242c-0.024,0.039-0.048,0.08-0.072,0.12
		c-0.062,0.108-0.128,0.22-0.192,0.332c-0.008,0.012-0.014,0.025-0.021,0.036c-0.071,0.125-0.144,0.251-0.215,0.381
		c-0.024,0.035-0.044,0.074-0.065,0.115c-0.054,0.092-0.106,0.187-0.159,0.28c-0.011,0.02-0.021,0.039-0.033,0.06
		c-0.015,0.029-0.032,0.058-0.048,0.088c-0.042,0.072-0.082,0.146-0.121,0.218c-0.029,0.055-0.06,0.107-0.088,0.16
		c-0.041,0.075-0.081,0.149-0.122,0.224c-0.03,0.056-0.061,0.109-0.088,0.164c-0.041,0.077-0.083,0.153-0.124,0.23
		c-0.029,0.057-0.059,0.112-0.089,0.167c-0.042,0.078-0.082,0.155-0.123,0.234c-0.313-1.501-0.495-3.112-0.461-4.806
		C13.003,13.875,13.967,13.602,15.23,13.425z M7.426,14.682l0.953-2.409c0.066-0.08,0.209-0.317,0.316-0.317
		c0.275,0,0.402,0.039,0.529,0.117c-0.138,0.395-0.483,1.167-0.652,1.582c-0.01,0.022-0.022,0.057-0.038,0.097
		c-0.436,0.329-0.831,0.695-1.178,1.102C7.38,14.795,7.402,14.737,7.426,14.682z M6.693,21.64c-0.213-1.126-0.342-2.03-0.127-4.132
		c0.236-0.306,0.594-0.872,1.037-0.872l0,0c-0.297,1.07-0.573,1.919-0.675,2.706C6.831,20.084,6.846,21.141,6.693,21.64z
		 M8.288,28.723c-0.007-0.012-0.015-0.015-0.022-0.027c-0.003-0.002-0.004,0-0.006-0.003c-0.01-0.016-0.018-0.026-0.027-0.04
		c-0.002-0.006-0.006-0.01-0.011-0.016c-0.006-0.011-0.014-0.022-0.021-0.034c-0.001-0.002-0.003-0.006-0.004-0.009
		c-0.008-0.014-0.019-0.027-0.026-0.043c-0.002-0.005-0.005-0.009-0.006-0.013c-0.011-0.016,0.032-0.029,0.021-0.043
		c-0.044-0.078-0.036-0.154-0.081-0.231c0.042,0.069,0.22,0.137,0.22,0.209v0.002l-0.089,0.021c0.038,0.062,0.068,0.099,0.099,0.131
		c-0.001,0.013-0.004,0.02-0.008,0.016l0,0.079c-0.011-0.015-0.019,0.011-0.03-0.005C8.294,28.711,8.292,28.728,8.288,28.723z
		 M8.371,28.664c0.035,0.036,0.071,0.073,0.12,0.145C8.468,28.774,8.402,28.981,8.371,28.664z M8.873,25.639
		c-0.007,0.017-0.012,0.032-0.019,0.049c-0.021,0.064-0.042,0.129-0.063,0.192c-0.008,0.03-0.017,0.058-0.028,0.086
		c-0.017,0.057-0.036,0.115-0.056,0.174c-0.007,0.025-0.016,0.052-0.024,0.079c-0.021,0.067-0.041,0.133-0.061,0.199
		c-0.007,0.015-0.01,0.028-0.013,0.042c-0.024,0.08-0.047,0.157-0.07,0.235l-0.004,0.014c-0.005,0.019-0.01,0.035-0.015,0.056
		c-0.015,0.048-0.029,0.098-0.043,0.145c-0.006,0.025-0.013,0.051-0.021,0.078c-0.01,0.043-0.023,0.085-0.035,0.129
		c-0.007,0.027-0.016,0.055-0.021,0.082c-0.011,0.041-0.021,0.082-0.03,0.119l-0.005,0.018c-0.313-0.814-0.609-1.79-0.712-2.676
		c-0.231-1.051-0.301-3.445-0.216-4.461c0.121-1.452,0.478-2.912,0.917-4.237c0.257-0.155,0.532-0.305,0.817-0.447
		c-0.109,1.836,0.575,4.582,1.145,6.538c-0.016,0.029-0.031,0.06-0.044,0.089c-0.018,0.035-0.033,0.071-0.05,0.104
		c-0.064,0.137-0.13,0.275-0.198,0.415c-0.052,0.123-0.104,0.248-0.156,0.369c-0.016,0.038-0.03,0.072-0.046,0.109
		c-0.037,0.094-0.077,0.188-0.114,0.281c-0.012,0.027-0.026,0.057-0.036,0.086c-0.048,0.115-0.096,0.229-0.138,0.342
		c-0.013,0.028-0.024,0.057-0.035,0.085c-0.035,0.087-0.068,0.173-0.1,0.26c-0.009,0.018-0.016,0.04-0.024,0.058
		c-0.007,0.014-0.01,0.027-0.016,0.043c-0.041,0.104-0.078,0.205-0.116,0.307c-0.007,0.015-0.014,0.029-0.019,0.045
		c-0.035,0.096-0.068,0.188-0.103,0.281c-0.013,0.033-0.023,0.065-0.038,0.097c-0.027,0.081-0.055,0.157-0.082,0.235
		c-0.008,0.024-0.017,0.047-0.024,0.072c-0.035,0.1-0.069,0.197-0.102,0.294L8.873,25.639z M11.11,32.507l-0.369-0.291
		c-0.393-0.393-0.905-0.893-1.43-1.52c0.036-0.169-0.158-0.344,0.2-0.523c0.714,0.918,1.584,1.826,2.427,2.607
		C11.688,32.692,11.357,32.6,11.11,32.507z M13.917,34.565c-0.032-0.026-0.064-0.052-0.098-0.079
		c0.042,0.035,0.082,0.066,0.12,0.098C13.932,34.577,13.925,34.57,13.917,34.565z M14.022,34.648
		c0.028,0.023,0.055,0.043,0.082,0.062c-0.023-0.017-0.046-0.033-0.068-0.051C14.032,34.656,14.025,34.652,14.022,34.648z
		 M14.121,34.727c-0.002-0.003-0.004-0.005-0.007-0.006c0.011,0.007,0.021,0.017,0.032,0.025
		C14.139,34.738,14.13,34.735,14.121,34.727z M14.678,35.123h-0.001l0,0h-0.004c0,0-0.005-0.002-0.009-0.004
		c-0.002-0.002-0.007-0.005-0.007-0.005c0.013,0.007,0.022,0.011,0.022,0.007V35.123z M13.411,33.297
		c-1.177-0.831-3.068-2.274-3.933-3.67c0.385-1.552,0.931-3.417,1.563-5.215c0.323,0.862,2.545,6.075,5.965,9.676
		c-0.841-0.1-1.526-0.243-1.981-0.379C14.553,33.622,14.001,33.477,13.411,33.297z M16.826,35.637
		c-0.203-0.078-0.41-0.107-0.616-0.192c0.502-0.051,1.034-0.133,1.583-0.133h0.001c0.141,0,0.281,0,0.421,0
		c0.334,0,0.676,0.519,1.026,0.763C18.389,35.929,17.471,35.741,16.826,35.637z M17.565,34.146c0.156,0.014,0.316,0.027,0.481,0.037
		l-0.001,0.002C17.88,34.173,17.721,34.16,17.565,34.146z M19.31,35.287c-0.026,0-0.051,0-0.076,0c0.036,0,0.072,0,0.107,0
		C19.331,35.287,19.319,35.287,19.31,35.287z M24.893,36.423c-0.303,0.063-0.61,0.123-0.918,0.183
		c-0.751-0.309-1.619-0.818-2.439-1.452c-0.056-0.042-0.105-0.083-0.158-0.123c1.003-0.117,2.894-0.619,4.076-0.973
		C25.301,34.986,25.114,35.83,24.893,36.423z M25.605,33.006c-0.163,0.071-0.326,0.138-0.489,0.201
		c0.156-0.088,0.324-0.187,0.5-0.296C25.613,32.943,25.608,32.974,25.605,33.006z M19.965,33.91c-1.458-1.197-2.096-1.906-2.9-3.031
		c-0.769-1.146-3.407-4.533-4.882-9.304c1.079-2.351,2.786-5.436,5.019-8.321c0.571-0.032,1.244-0.054,1.991-0.054
		c1.547,0,3.42,0.101,5.438,0.441c1.051,4.216,1.626,9.291,1.323,15.46c-0.032,0.669-0.097,1.588-0.196,2.563
		C23.717,32.901,21.532,33.591,19.965,33.91z M34.398,31.724c-0.618,0.561-1.338,1.172-2.173,1.84
		c-2.23,1.354-4.228,2.101-6.286,2.615c0.333-0.893,0.537-1.788,0.658-2.521c0.497-0.249,1.549-0.874,4.076-2.681
		c0.332-0.218,2.86-1.855,6.253-6.405c-0.125,1.049-0.258,1.925-0.343,2.266C36.318,28.304,35.363,30.419,34.398,31.724z
		 M38.656,24.976c-0.201,0.949-0.6,2.799-2.181,4.658c1.025-1.334,1.417-5.213,1.485-6.128c0.003-0.067,0.014-0.206,0.024-0.41
		c0.316-0.459,0.64-0.946,0.967-1.455c0.007,0.012,0.013,0.021,0.019,0.03C38.915,22.775,38.778,24.099,38.656,24.976z"/>
</g>
</svg>
